<?xml version="1.0" standalone="no"?>
<!DOCTYPE svg PUBLIC "-//W3C//DTD SVG 20010904//EN"
 "http://www.w3.org/TR/2001/REC-SVG-20010904/DTD/svg10.dtd">
<svg version="1.0" xmlns="http://www.w3.org/2000/svg"
 width="200.000000pt" height="200.000000pt" viewBox="0 0 200.000000 200.000000"
 preserveAspectRatio="xMidYMid meet">
<metadata>
Created by potrace 1.14, written by Peter Selinger 2001-2017
</metadata>
<g transform="translate(0.000000,200.000000) scale(0.100000,-0.100000)"
fill="#000000" stroke="none">
<path d="M1575 1967 c-90 -54 -689 -400 -717 -414 -16 -8 -28 -18 -28 -23 0
-5 34 -27 75 -50 41 -23 77 -45 80 -51 4 -5 11 -7 16 -4 5 4 9 2 9 -4 0 -5 6
-11 13 -13 6 -2 56 -28 109 -58 69 -39 100 -62 106 -80 4 -14 7 -90 6 -170 0
-80 2 -152 7 -161 10 -21 235 -149 261 -149 15 0 388 206 388 215 0 1 -56 35
-125 75 -69 39 -128 76 -131 82 -4 6 -7 195 -7 420 0 225 -3 410 -6 412 -3 2
-28 -10 -56 -27z"/>
<path d="M785 1332 c1 -75 -1 -145 -3 -155 -3 -10 -23 -28 -46 -41 -22 -13
-139 -81 -259 -150 -120 -69 -222 -126 -228 -126 -5 0 -9 -4 -9 -9 0 -5 -8
-11 -17 -14 -10 -3 -40 -20 -68 -36 -27 -17 -60 -36 -72 -42 -13 -7 -23 -15
-23 -18 0 -5 69 -45 379 -222 25 -14 133 -76 239 -137 l192 -111 1 127 c0 70
0 173 -1 229 0 57 4 111 10 123 6 11 73 56 149 101 98 58 140 89 143 103 2 12
3 81 3 154 -1 128 -2 133 -25 150 -30 20 -150 92 -156 92 -3 0 -21 10 -42 23
-20 13 -66 39 -102 59 l-65 36 0 -136z"/>
<path d="M1775 854 c-77 -46 -147 -87 -155 -91 -8 -4 -32 -17 -52 -30 -56 -34
-53 -35 -206 56 -29 17 -57 31 -61 31 -5 0 -14 6 -20 13 -6 8 -28 19 -49 26
-37 13 -39 12 -152 -54 -63 -36 -121 -74 -128 -83 -9 -12 -12 -71 -12 -235 l1
-218 32 19 c146 88 215 125 234 125 12 0 84 -37 160 -81 76 -44 152 -89 170
-99 17 -10 69 -40 115 -67 46 -26 103 -60 127 -74 25 -13 70 -40 100 -58 49
-28 57 -30 62 -16 4 14 5 843 0 905 0 9 -7 17 -13 16 -7 0 -76 -39 -153 -85z"/>
</g>
</svg>
